%TF.GenerationSoftware,KiCad,Pcbnew,(6.0.8)*%
%TF.CreationDate,2022-12-31T11:57:47+00:00*%
%TF.ProjectId,USBKB,5553424b-422e-46b6-9963-61645f706362,rev?*%
%TF.SameCoordinates,Original*%
%TF.FileFunction,Copper,L1,Top*%
%TF.FilePolarity,Positive*%
%FSLAX46Y46*%
G04 Gerber Fmt 4.6, Leading zero omitted, Abs format (unit mm)*
G04 Created by KiCad (PCBNEW (6.0.8)) date 2022-12-31 11:57:47*
%MOMM*%
%LPD*%
G01*
G04 APERTURE LIST*
G04 Aperture macros list*
%AMRoundRect*
0 Rectangle with rounded corners*
0 $1 Rounding radius*
0 $2 $3 $4 $5 $6 $7 $8 $9 X,Y pos of 4 corners*
0 Add a 4 corners polygon primitive as box body*
4,1,4,$2,$3,$4,$5,$6,$7,$8,$9,$2,$3,0*
0 Add four circle primitives for the rounded corners*
1,1,$1+$1,$2,$3*
1,1,$1+$1,$4,$5*
1,1,$1+$1,$6,$7*
1,1,$1+$1,$8,$9*
0 Add four rect primitives between the rounded corners*
20,1,$1+$1,$2,$3,$4,$5,0*
20,1,$1+$1,$4,$5,$6,$7,0*
20,1,$1+$1,$6,$7,$8,$9,0*
20,1,$1+$1,$8,$9,$2,$3,0*%
G04 Aperture macros list end*
%TA.AperFunction,ComponentPad*%
%ADD10O,1.000000X2.100000*%
%TD*%
%TA.AperFunction,SMDPad,CuDef*%
%ADD11R,0.600000X1.150000*%
%TD*%
%TA.AperFunction,SMDPad,CuDef*%
%ADD12R,0.300000X1.150000*%
%TD*%
%TA.AperFunction,SMDPad,CuDef*%
%ADD13R,1.300000X0.900000*%
%TD*%
%TA.AperFunction,SMDPad,CuDef*%
%ADD14R,0.900000X1.300000*%
%TD*%
%TA.AperFunction,ComponentPad*%
%ADD15R,2.000000X2.000000*%
%TD*%
%TA.AperFunction,ComponentPad*%
%ADD16C,2.000000*%
%TD*%
%TA.AperFunction,SMDPad,CuDef*%
%ADD17O,1.150000X0.300000*%
%TD*%
%TA.AperFunction,SMDPad,CuDef*%
%ADD18O,0.300000X1.150000*%
%TD*%
%TA.AperFunction,SMDPad,CuDef*%
%ADD19RoundRect,0.200000X-2.500000X-2.500000X2.500000X-2.500000X2.500000X2.500000X-2.500000X2.500000X0*%
%TD*%
%TA.AperFunction,SMDPad,CuDef*%
%ADD20R,1.400000X1.200000*%
%TD*%
%TA.AperFunction,ViaPad*%
%ADD21C,0.800000*%
%TD*%
%TA.AperFunction,Conductor*%
%ADD22C,0.250000*%
%TD*%
G04 APERTURE END LIST*
D10*
%TO.P,U1,*%
%TO.N,*%
X45220002Y-22765000D03*
X36580002Y-26945000D03*
X36580002Y-22765000D03*
X45220002Y-26945000D03*
D11*
%TO.P,U1,A1/B12,GND*%
%TO.N,Net-(C1-Pad1)*%
X44100002Y-27520000D03*
%TO.P,U1,A4/B9,VBUS*%
%TO.N,Net-(U1-PadA4/B9)*%
X43300002Y-27520000D03*
D12*
%TO.P,U1,A5,CC1*%
%TO.N,unconnected-(U1-PadA5)*%
X42150002Y-27520000D03*
%TO.P,U1,A6,DP*%
%TO.N,Net-(R1-Pad2)*%
X41150002Y-27520000D03*
%TO.P,U1,A7,DN*%
%TO.N,Net-(R2-Pad2)*%
X40650002Y-27520000D03*
%TO.P,U1,A8,SBU1*%
%TO.N,unconnected-(U1-PadA8)*%
X39650002Y-27520000D03*
D11*
%TO.P,U1,B1/A12,GND*%
%TO.N,Net-(C1-Pad1)*%
X37700002Y-27520000D03*
%TO.P,U1,B4/A9,VBUS*%
%TO.N,Net-(U1-PadA4/B9)*%
X38500002Y-27520000D03*
D12*
%TO.P,U1,B5,CC2*%
%TO.N,unconnected-(U1-PadB5)*%
X39150002Y-27520000D03*
%TO.P,U1,B6,DP*%
%TO.N,Net-(R1-Pad2)*%
X40150002Y-27520000D03*
%TO.P,U1,B7,DN*%
%TO.N,Net-(R2-Pad2)*%
X41650002Y-27520000D03*
%TO.P,U1,B8,SUB2*%
%TO.N,unconnected-(U1-PadB8)*%
X42650002Y-27520000D03*
%TD*%
D13*
%TO.P,R2,1*%
%TO.N,Net-(R2-Pad1)*%
X96000000Y-121150000D03*
%TO.P,R2,2*%
%TO.N,Net-(R2-Pad2)*%
X96000000Y-123250000D03*
%TD*%
D14*
%TO.P,C2,1*%
%TO.N,Net-(C1-Pad1)*%
X134550000Y-118000000D03*
%TO.P,C2,2*%
%TO.N,Net-(C2-Pad2)*%
X132450000Y-118000000D03*
%TD*%
%TO.P,C3,1*%
%TO.N,Net-(C1-Pad1)*%
X134550000Y-121500000D03*
%TO.P,C3,2*%
%TO.N,Net-(C3-Pad2)*%
X132450000Y-121500000D03*
%TD*%
%TO.P,C1,1*%
%TO.N,Net-(C1-Pad1)*%
X96950000Y-111750000D03*
%TO.P,C1,2*%
%TO.N,Net-(C1-Pad2)*%
X99050000Y-111750000D03*
%TD*%
D15*
%TO.P,U2,1,MISO*%
%TO.N,/COL1*%
X173230000Y-113960000D03*
D16*
%TO.P,U2,2,Vcc*%
%TO.N,Net-(U1-PadA4/B9)*%
X175770000Y-113960000D03*
%TO.P,U2,3,SCK*%
%TO.N,/COL3*%
X173230000Y-116500000D03*
%TO.P,U2,4,MOSI*%
%TO.N,/COL2*%
X175770000Y-116500000D03*
%TO.P,U2,5,RST*%
%TO.N,Net-(U2-Pad5)*%
X173230000Y-119040000D03*
%TO.P,U2,6,GND*%
%TO.N,Net-(C1-Pad1)*%
X175770000Y-119040000D03*
%TD*%
D17*
%TO.P,U3,1,PE6*%
%TO.N,unconnected-(U3-Pad1)*%
X112375000Y-113500000D03*
%TO.P,U3,2,UVcc*%
%TO.N,Net-(U1-PadA4/B9)*%
X112375000Y-114000000D03*
%TO.P,U3,3,D-*%
%TO.N,Net-(R2-Pad1)*%
X112375000Y-114500000D03*
%TO.P,U3,4,D+*%
%TO.N,Net-(R1-Pad1)*%
X112375000Y-115000000D03*
%TO.P,U3,5,UGnd*%
%TO.N,Net-(C1-Pad1)*%
X112375000Y-115500000D03*
%TO.P,U3,6,UCap*%
%TO.N,Net-(C1-Pad2)*%
X112375000Y-116000000D03*
%TO.P,U3,7,VBus*%
%TO.N,Net-(U1-PadA4/B9)*%
X112375000Y-116500000D03*
%TO.P,U3,8,PB0(SS)*%
%TO.N,/COL4*%
X112375000Y-117000000D03*
%TO.P,U3,9,PB1(SCL)*%
%TO.N,/COL3*%
X112375000Y-117500000D03*
%TO.P,U3,10,PB2(MOSI)*%
%TO.N,/COL2*%
X112375000Y-118000000D03*
%TO.P,U3,11,PB3(MISO)*%
%TO.N,/COL1*%
X112375000Y-118500000D03*
D18*
%TO.P,U3,12,PB7*%
%TO.N,/COL0*%
X113500000Y-119625000D03*
%TO.P,U3,13,~{RESET}*%
%TO.N,Net-(U2-Pad5)*%
X114000000Y-119625000D03*
%TO.P,U3,14,Vcc*%
%TO.N,Net-(U1-PadA4/B9)*%
X114500000Y-119625000D03*
%TO.P,U3,15,GND*%
%TO.N,Net-(C1-Pad1)*%
X115000000Y-119625000D03*
%TO.P,U3,16,XTAL2*%
%TO.N,Net-(C3-Pad2)*%
X115500000Y-119625000D03*
%TO.P,U3,17,XTAL1*%
%TO.N,Net-(C2-Pad2)*%
X116000000Y-119625000D03*
%TO.P,U3,18,PD0*%
%TO.N,/ROW0*%
X116500000Y-119625000D03*
%TO.P,U3,19,PD1*%
%TO.N,/ROW1*%
X117000000Y-119625000D03*
%TO.P,U3,20,PD2*%
%TO.N,/ROW2*%
X117500000Y-119625000D03*
%TO.P,U3,21,PD3*%
%TO.N,/ROW3*%
X118000000Y-119625000D03*
%TO.P,U3,22,PD5*%
%TO.N,/ROW4*%
X118500000Y-119625000D03*
D17*
%TO.P,U3,23,GND*%
%TO.N,Net-(C1-Pad1)*%
X119625000Y-118500000D03*
%TO.P,U3,24,AVcc*%
%TO.N,Net-(U1-PadA4/B9)*%
X119625000Y-118000000D03*
%TO.P,U3,25,PD4*%
%TO.N,unconnected-(U3-Pad25)*%
X119625000Y-117500000D03*
%TO.P,U3,26,PD6*%
%TO.N,unconnected-(U3-Pad26)*%
X119625000Y-117000000D03*
%TO.P,U3,27,PD7*%
%TO.N,unconnected-(U3-Pad27)*%
X119625000Y-116500000D03*
%TO.P,U3,28,PB4*%
%TO.N,unconnected-(U3-Pad28)*%
X119625000Y-116000000D03*
%TO.P,U3,29,PB5*%
%TO.N,unconnected-(U3-Pad29)*%
X119625000Y-115500000D03*
%TO.P,U3,30,PB6*%
%TO.N,unconnected-(U3-Pad30)*%
X119625000Y-115000000D03*
%TO.P,U3,31,PC6*%
%TO.N,/COL13*%
X119625000Y-114500000D03*
%TO.P,U3,32,PC7*%
%TO.N,/COL12*%
X119625000Y-114000000D03*
%TO.P,U3,33,PE2*%
%TO.N,/COL11*%
X119625000Y-113500000D03*
D18*
%TO.P,U3,34,Vcc*%
%TO.N,Net-(U1-PadA4/B9)*%
X118500000Y-112375000D03*
%TO.P,U3,35,GND*%
%TO.N,Net-(C1-Pad1)*%
X118000000Y-112375000D03*
%TO.P,U3,36,PF7*%
%TO.N,/COL10*%
X117500000Y-112375000D03*
%TO.P,U3,37,PF6*%
%TO.N,/COL9*%
X117000000Y-112375000D03*
%TO.P,U3,38,PF5*%
%TO.N,/COL8*%
X116500000Y-112375000D03*
%TO.P,U3,39,PF4*%
%TO.N,/COL7*%
X116000000Y-112375000D03*
%TO.P,U3,40,PF1*%
%TO.N,/COL6*%
X115500000Y-112375000D03*
%TO.P,U3,41,PF0*%
%TO.N,/COL5*%
X115000000Y-112375000D03*
%TO.P,U3,42,AREF*%
%TO.N,Net-(U1-PadA4/B9)*%
X114500000Y-112375000D03*
%TO.P,U3,43,GND*%
%TO.N,Net-(C1-Pad1)*%
X114000000Y-112375000D03*
%TO.P,U3,44,AVcc*%
%TO.N,Net-(U1-PadA4/B9)*%
X113500000Y-112375000D03*
D19*
%TO.P,U3,45,GND*%
%TO.N,Net-(C1-Pad1)*%
X116000000Y-116000000D03*
%TD*%
D13*
%TO.P,R1,1*%
%TO.N,Net-(R1-Pad1)*%
X98500000Y-121150000D03*
%TO.P,R1,2*%
%TO.N,Net-(R1-Pad2)*%
X98500000Y-123250000D03*
%TD*%
D20*
%TO.P,Y1,1,1*%
%TO.N,Net-(C2-Pad2)*%
X132400000Y-114350000D03*
%TO.P,Y1,2,2*%
%TO.N,Net-(C1-Pad1)*%
X134600000Y-114350000D03*
%TO.P,Y1,3,3*%
%TO.N,Net-(C3-Pad2)*%
X134600000Y-112650000D03*
%TO.P,Y1,4,4*%
%TO.N,Net-(C1-Pad1)*%
X132400000Y-112650000D03*
%TD*%
D21*
%TO.N,Net-(C1-Pad1)*%
X93500000Y-113000000D03*
X113000000Y-109500000D03*
X118224500Y-109500000D03*
X139500000Y-119500000D03*
X136000000Y-122000000D03*
X101000000Y-125500000D03*
X136500000Y-109500000D03*
X121981551Y-118993850D03*
X123012299Y-124224500D03*
%TO.N,Net-(C1-Pad2)*%
X107000000Y-111750000D03*
X101250000Y-111750000D03*
%TO.N,Net-(C2-Pad2)*%
X128500000Y-118000000D03*
X120500000Y-123000000D03*
%TO.N,Net-(C3-Pad2)*%
X134500000Y-111000000D03*
X128500000Y-121500000D03*
X119500000Y-123724500D03*
%TO.N,/ROW2*%
X309120495Y-68175000D03*
%TO.N,/COL1*%
X54500000Y-57500000D03*
X106500000Y-119500000D03*
X69000000Y-95500000D03*
X59250000Y-76750000D03*
X52000000Y-114750000D03*
X44997978Y-38493818D03*
%TO.N,/COL11*%
X290250000Y-114500000D03*
X249750000Y-76500000D03*
X276250000Y-95500000D03*
X290000000Y-105275500D03*
X245000000Y-57500000D03*
X235500000Y-38500000D03*
%TO.N,/ROW3*%
X308620495Y-87175000D03*
%TO.N,/COL5*%
X145500000Y-105000000D03*
X145250000Y-95750000D03*
X135500000Y-76500000D03*
X130750000Y-57500000D03*
X147250000Y-115750000D03*
X121250000Y-38500000D03*
%TO.N,/ROW1*%
X309620495Y-49675000D03*
%TO.N,/COL13*%
X288000000Y-57500000D03*
X283250000Y-38500000D03*
%TO.N,/ROW0*%
X309620495Y-30175000D03*
%TO.N,/COL3*%
X83248960Y-38499999D03*
X107000000Y-95750000D03*
X103000000Y-115000000D03*
X97500000Y-76750000D03*
X92750000Y-57500000D03*
%TO.N,/COL0*%
X28500000Y-114500000D03*
X38000000Y-95500000D03*
X26000000Y-38500000D03*
X30750000Y-57750000D03*
X33250000Y-76500000D03*
%TO.N,/COL8*%
X178500000Y-38500000D03*
X218750000Y-114750000D03*
X202500000Y-95500000D03*
X216500000Y-105250000D03*
X188000000Y-57500000D03*
X192750000Y-76500000D03*
%TO.N,/COL12*%
X264000000Y-57500000D03*
X280750000Y-76500000D03*
X254500000Y-38500000D03*
%TO.N,/COL4*%
X126000000Y-95500000D03*
X116500000Y-76500000D03*
X111750000Y-57500000D03*
X102250000Y-38500000D03*
%TO.N,/ROW4*%
X308325500Y-106175000D03*
%TO.N,/COL10*%
X216500000Y-38250000D03*
X266250000Y-105275500D03*
X226000000Y-57500000D03*
X230750000Y-76500000D03*
X266500000Y-114750000D03*
X240250000Y-95750000D03*
%TO.N,/COL6*%
X154750000Y-76500000D03*
X149750000Y-57500000D03*
X164250000Y-95500000D03*
X140250000Y-38500000D03*
%TO.N,/COL7*%
X159250000Y-38500000D03*
X169000000Y-57250000D03*
X183250000Y-95500000D03*
X173750000Y-76500000D03*
%TO.N,/COL9*%
X221000000Y-95500000D03*
X242750000Y-114750000D03*
X207000000Y-57500000D03*
X242500000Y-105250000D03*
X197500000Y-38500000D03*
X211750000Y-76500000D03*
%TO.N,/COL2*%
X88000000Y-95500000D03*
X63999364Y-38493818D03*
X147000000Y-120500000D03*
X136500000Y-123500000D03*
X78500000Y-76500000D03*
X76000000Y-114750000D03*
X104000000Y-117500000D03*
X73750000Y-57500000D03*
%TO.N,Net-(R1-Pad1)*%
X109192004Y-113832594D03*
X98500000Y-119750000D03*
%TO.N,Net-(R2-Pad1)*%
X109250000Y-112750000D03*
X96000000Y-119750000D03*
%TO.N,Net-(U2-Pad5)*%
X113500000Y-121475402D03*
%TO.N,Net-(U1-PadA4/B9)*%
X113500000Y-122500000D03*
X109000000Y-110500000D03*
X123500000Y-118000000D03*
X107000000Y-110500000D03*
X120000000Y-108000000D03*
X127000000Y-108500000D03*
X113000000Y-108000000D03*
%TD*%
D22*
%TO.N,Net-(C1-Pad1)*%
X114025000Y-110525000D02*
X114025000Y-112250000D01*
X37700002Y-27520000D02*
X37500000Y-27720002D01*
X118750195Y-124000000D02*
X114500000Y-124000000D01*
X136500000Y-114000000D02*
X136150000Y-114350000D01*
X120125000Y-119000000D02*
X119625000Y-118500000D01*
X136500000Y-119500000D02*
X136500000Y-120750000D01*
X102000000Y-126000000D02*
X102000000Y-125500000D01*
X35500000Y-28500000D02*
X35000000Y-28000000D01*
X136500000Y-109500000D02*
X136250000Y-109750000D01*
X118000000Y-109724500D02*
X118000000Y-112375000D01*
X112000000Y-123500000D02*
X114000000Y-123500000D01*
X121975401Y-119000000D02*
X120125000Y-119000000D01*
X116000000Y-116000000D02*
X114000000Y-114000000D01*
X136000000Y-121750000D02*
X135750000Y-121500000D01*
X136250000Y-109750000D02*
X132500000Y-109750000D01*
X113000000Y-109500000D02*
X114025000Y-110525000D01*
X35000000Y-28000000D02*
X22500000Y-28000000D01*
X103500000Y-122450000D02*
X110950000Y-122450000D01*
X136000000Y-118000000D02*
X134300000Y-118000000D01*
X101000000Y-125500000D02*
X102000000Y-125500000D01*
X135750000Y-121500000D02*
X134550000Y-121500000D01*
X46500000Y-28500000D02*
X46500000Y-24500000D01*
X110950000Y-122450000D02*
X112000000Y-123500000D01*
X123012299Y-124224500D02*
X122736799Y-124500000D01*
X107750000Y-109500000D02*
X107750000Y-113954416D01*
X136500000Y-120750000D02*
X135750000Y-121500000D01*
X46500000Y-24500000D02*
X35000000Y-24500000D01*
X102000000Y-125500000D02*
X102000000Y-123636396D01*
X44100002Y-27520000D02*
X44100002Y-28100002D01*
X136500000Y-114000000D02*
X136500000Y-117500000D01*
X113000000Y-109500000D02*
X107750000Y-109500000D01*
X44500000Y-28500000D02*
X46500000Y-28500000D01*
X107750000Y-113954416D02*
X109295584Y-115500000D01*
X22500000Y-28000000D02*
X22150000Y-28350000D01*
X122736799Y-124500000D02*
X119250195Y-124500000D01*
X132400000Y-109850000D02*
X132400000Y-112650000D01*
X139500000Y-119500000D02*
X136500000Y-119500000D01*
X96950000Y-111750000D02*
X94750000Y-111750000D01*
X114000000Y-123500000D02*
X115000000Y-122500000D01*
X102000000Y-123636396D02*
X103186396Y-122450000D01*
X119250195Y-124500000D02*
X118750195Y-124000000D01*
X44100002Y-28100002D02*
X44500000Y-28500000D01*
X136150000Y-114350000D02*
X134600000Y-114350000D01*
X22150000Y-28350000D02*
X22150000Y-126550000D01*
X94750000Y-111750000D02*
X93500000Y-113000000D01*
X35000000Y-24500000D02*
X35000000Y-28000000D01*
X121981551Y-118993850D02*
X121975401Y-119000000D01*
X37500000Y-28500000D02*
X35500000Y-28500000D01*
X136000000Y-122000000D02*
X136000000Y-121750000D01*
X132500000Y-109750000D02*
X132400000Y-109850000D01*
X115000000Y-122500000D02*
X115000000Y-119625000D01*
X114500000Y-124000000D02*
X114000000Y-123500000D01*
X103186396Y-122450000D02*
X103500000Y-122450000D01*
X114000000Y-114000000D02*
X114000000Y-112375000D01*
X136500000Y-117500000D02*
X136500000Y-119500000D01*
X118224500Y-109500000D02*
X118000000Y-109724500D01*
X37500000Y-27720002D02*
X37500000Y-28500000D01*
X109295584Y-115500000D02*
X112375000Y-115500000D01*
X136500000Y-117500000D02*
X136000000Y-118000000D01*
X101450000Y-126550000D02*
X102000000Y-126000000D01*
X136500000Y-109500000D02*
X136500000Y-114000000D01*
X22150000Y-126550000D02*
X101450000Y-126550000D01*
%TO.N,Net-(C1-Pad2)*%
X101250000Y-111750000D02*
X99050000Y-111750000D01*
X109159188Y-116000000D02*
X112375000Y-116000000D01*
X107000000Y-111750000D02*
X107000000Y-113840812D01*
X107000000Y-113840812D02*
X109159188Y-116000000D01*
%TO.N,Net-(C2-Pad2)*%
X132400000Y-114350000D02*
X130150000Y-114350000D01*
X116000000Y-122186396D02*
X116000000Y-119625000D01*
X116813604Y-123000000D02*
X116000000Y-122186396D01*
X120500000Y-123000000D02*
X116813604Y-123000000D01*
X130150000Y-114350000D02*
X130000000Y-114500000D01*
X130000000Y-118000000D02*
X128500000Y-118000000D01*
X130000000Y-114500000D02*
X130000000Y-118000000D01*
X132450000Y-118000000D02*
X130000000Y-118000000D01*
%TO.N,Net-(C3-Pad2)*%
X119275500Y-123500000D02*
X116000000Y-123500000D01*
X132450000Y-121500000D02*
X128500000Y-121500000D01*
X119500000Y-123724500D02*
X119275500Y-123500000D01*
X134600000Y-111100000D02*
X134500000Y-111000000D01*
X134600000Y-112650000D02*
X134600000Y-111100000D01*
X115500000Y-123000000D02*
X115500000Y-119625000D01*
X116000000Y-123500000D02*
X115500000Y-123000000D01*
%TO.N,/ROW2*%
X201100000Y-125650000D02*
X127672792Y-125650000D01*
X208075000Y-125825000D02*
X207760806Y-125510806D01*
X309500000Y-68175000D02*
X309500000Y-125825000D01*
X207760806Y-123675455D02*
X205831050Y-121745699D01*
X205831050Y-121745699D02*
X203101960Y-121745699D01*
X309500000Y-125825000D02*
X208075000Y-125825000D01*
X309120495Y-68175000D02*
X309500000Y-68175000D01*
X117500000Y-121150000D02*
X117500000Y-119625000D01*
X127672792Y-125650000D02*
X123172792Y-121150000D01*
X203101960Y-121745699D02*
X201100000Y-123747659D01*
X123172792Y-121150000D02*
X117500000Y-121150000D01*
X201100000Y-123747659D02*
X201100000Y-125650000D01*
X207760806Y-125510806D02*
X207760806Y-123675455D01*
%TO.N,/COL1*%
X106050000Y-118450000D02*
X111700000Y-118450000D01*
X54500000Y-57500000D02*
X54500000Y-72000000D01*
X52000000Y-112761059D02*
X52000000Y-114750000D01*
X106500000Y-119500000D02*
X106050000Y-119050000D01*
X106050000Y-119050000D02*
X106050000Y-118450000D01*
X52000000Y-114750000D02*
X52000000Y-117250000D01*
X52000000Y-117250000D02*
X52750000Y-118000000D01*
X59250000Y-76750000D02*
X59250000Y-85750000D01*
X44997978Y-47997978D02*
X54500000Y-57500000D01*
X52750000Y-118000000D02*
X102886396Y-118000000D01*
X54500000Y-72000000D02*
X59250000Y-76750000D01*
X111750000Y-118500000D02*
X112375000Y-118500000D01*
X59250000Y-85750000D02*
X69000000Y-95500000D01*
X44997978Y-38493818D02*
X44997978Y-47997978D01*
X69000000Y-95500000D02*
X69000000Y-95761059D01*
X102886396Y-118000000D02*
X103336396Y-118450000D01*
X103336396Y-118450000D02*
X106050000Y-118450000D01*
X111700000Y-118450000D02*
X111750000Y-118500000D01*
X69000000Y-95761059D02*
X52000000Y-112761059D01*
%TO.N,/COL11*%
X235500000Y-48000000D02*
X245000000Y-57500000D01*
X290000000Y-105275500D02*
X290000000Y-114250000D01*
X245000000Y-57500000D02*
X245000000Y-71750000D01*
X290000000Y-114250000D02*
X290250000Y-114500000D01*
X249750000Y-76634764D02*
X268615236Y-95500000D01*
X270550000Y-101200000D02*
X124809188Y-101200000D01*
X268615236Y-95500000D02*
X276250000Y-95500000D01*
X124809188Y-112690812D02*
X124000000Y-113500000D01*
X249750000Y-76500000D02*
X249750000Y-76634764D01*
X235500000Y-38500000D02*
X235500000Y-48000000D01*
X276250000Y-95500000D02*
X270550000Y-101200000D01*
X245000000Y-71750000D02*
X249750000Y-76500000D01*
X124000000Y-113500000D02*
X119625000Y-113500000D01*
X124809188Y-101200000D02*
X124809188Y-112690812D01*
%TO.N,/ROW3*%
X200650000Y-125200000D02*
X127859188Y-125200000D01*
X208210806Y-123489059D02*
X206017446Y-121295699D01*
X202915564Y-121295699D02*
X200650000Y-123561263D01*
X200650000Y-123561263D02*
X200650000Y-125200000D01*
X127859188Y-125200000D02*
X123359188Y-120700000D01*
X208210806Y-125200000D02*
X208210806Y-123489059D01*
X118000000Y-120700000D02*
X118000000Y-119625000D01*
X123359188Y-120700000D02*
X118000000Y-120700000D01*
X309050000Y-87175000D02*
X309050000Y-125375000D01*
X309050000Y-125375000D02*
X208385806Y-125375000D01*
X206017446Y-121295699D02*
X202915564Y-121295699D01*
X208385806Y-125375000D02*
X208210806Y-125200000D01*
X308620495Y-87175000D02*
X309050000Y-87175000D01*
%TO.N,/COL5*%
X145250000Y-95750000D02*
X142500000Y-98500000D01*
X145750000Y-114250000D02*
X147250000Y-115750000D01*
X123636396Y-98500000D02*
X123186396Y-98950000D01*
X145500000Y-105000000D02*
X145500000Y-114000000D01*
X142500000Y-98500000D02*
X123636396Y-98500000D01*
X115000000Y-98950000D02*
X115000000Y-112375000D01*
X123186396Y-98950000D02*
X115000000Y-98950000D01*
X121250000Y-38500000D02*
X121250000Y-48000000D01*
X121250000Y-48000000D02*
X130750000Y-57500000D01*
X135500000Y-76500000D02*
X135500000Y-86000000D01*
X135500000Y-86000000D02*
X145250000Y-95750000D01*
X145500000Y-114000000D02*
X145750000Y-114250000D01*
X130750000Y-71750000D02*
X135500000Y-76500000D01*
X130750000Y-57500000D02*
X130750000Y-71750000D01*
%TO.N,/ROW1*%
X201550000Y-123934055D02*
X201550000Y-125863604D01*
X309620495Y-49675000D02*
X309950000Y-49675000D01*
X309950000Y-126275000D02*
X207838604Y-126275000D01*
X207486396Y-126100000D02*
X207310806Y-125924410D01*
X207310806Y-123861851D02*
X205644654Y-122195699D01*
X127486396Y-126100000D02*
X122986396Y-121600000D01*
X207310806Y-125924410D02*
X207310806Y-123861851D01*
X122986396Y-121600000D02*
X117000000Y-121600000D01*
X207838604Y-126275000D02*
X207663604Y-126100000D01*
X309950000Y-49675000D02*
X309950000Y-126275000D01*
X117000000Y-121600000D02*
X117000000Y-119625000D01*
X207663604Y-126100000D02*
X207486396Y-126100000D01*
X201550000Y-125863604D02*
X201313604Y-126100000D01*
X201313604Y-126100000D02*
X127486396Y-126100000D01*
X205644654Y-122195699D02*
X203288356Y-122195699D01*
X203288356Y-122195699D02*
X201550000Y-123934055D01*
%TO.N,/COL13*%
X283250000Y-38500000D02*
X283250000Y-52750000D01*
X265627951Y-102100000D02*
X125709188Y-102100000D01*
X294299006Y-73072993D02*
X294299006Y-79200994D01*
X125709188Y-102100000D02*
X125709188Y-113063604D01*
X125709188Y-113063604D02*
X124272792Y-114500000D01*
X283250000Y-52750000D02*
X288000000Y-57500000D01*
X294299006Y-79200994D02*
X297095006Y-81996994D01*
X288000000Y-66773987D02*
X294299006Y-73072993D01*
X285150000Y-102100000D02*
X276910059Y-102100000D01*
X297095006Y-81996994D02*
X297095006Y-90154994D01*
X288000000Y-57500000D02*
X288000000Y-66773987D01*
X297095006Y-90154994D02*
X285150000Y-102100000D01*
X270277252Y-106749301D02*
X265627951Y-102100000D01*
X276910059Y-102100000D02*
X272260758Y-106749301D01*
X272260758Y-106749301D02*
X270277252Y-106749301D01*
X124272792Y-114500000D02*
X119625000Y-114500000D01*
%TO.N,/ROW0*%
X309620495Y-30175000D02*
X310400000Y-30175000D01*
X202000000Y-124120451D02*
X202000000Y-126050000D01*
X202000000Y-126050000D02*
X201500000Y-126550000D01*
X122800000Y-122050000D02*
X116500000Y-122050000D01*
X206860806Y-126110806D02*
X206860806Y-124048247D01*
X116500000Y-122050000D02*
X116500000Y-119625000D01*
X206860806Y-124048247D02*
X205458258Y-122645699D01*
X127250000Y-126500000D02*
X122800000Y-122050000D01*
X203474752Y-122645699D02*
X202000000Y-124120451D01*
X310400000Y-30175000D02*
X310400000Y-126725000D01*
X207475000Y-126725000D02*
X206860806Y-126110806D01*
X127250000Y-126550000D02*
X127250000Y-126500000D01*
X310400000Y-126725000D02*
X207475000Y-126725000D01*
X205458258Y-122645699D02*
X203474752Y-122645699D01*
X201500000Y-126550000D02*
X127250000Y-126550000D01*
%TO.N,/COL3*%
X102000000Y-100750000D02*
X102000000Y-110750000D01*
X92750000Y-57500000D02*
X92750000Y-72000000D01*
X102000000Y-110750000D02*
X105125000Y-113875000D01*
X105000000Y-114000000D02*
X105125000Y-113875000D01*
X104000000Y-114000000D02*
X105000000Y-114000000D01*
X107000000Y-95750000D02*
X102000000Y-100750000D01*
X97500000Y-86250000D02*
X107000000Y-95750000D01*
X92750000Y-72000000D02*
X97500000Y-76750000D01*
X83248960Y-47998960D02*
X92750000Y-57500000D01*
X83248960Y-38499999D02*
X83248960Y-47998960D01*
X97500000Y-76750000D02*
X97500000Y-86250000D01*
X108750000Y-117500000D02*
X112375000Y-117500000D01*
X103000000Y-115000000D02*
X104000000Y-114000000D01*
X105125000Y-113875000D02*
X108750000Y-117500000D01*
%TO.N,/COL0*%
X28500000Y-105000000D02*
X28500000Y-114500000D01*
X33250000Y-76500000D02*
X33250000Y-86463277D01*
X28500000Y-114500000D02*
X28500000Y-114940764D01*
X28500000Y-114940764D02*
X32009236Y-118450000D01*
X33250000Y-86463277D02*
X38000000Y-91213277D01*
X104750000Y-120500000D02*
X113000000Y-120500000D01*
X38000000Y-95500000D02*
X28500000Y-105000000D01*
X102700000Y-118450000D02*
X104750000Y-120500000D01*
X26000000Y-53000000D02*
X30750000Y-57750000D01*
X33250000Y-60250000D02*
X33250000Y-76500000D01*
X113500000Y-120000000D02*
X113500000Y-119625000D01*
X26000000Y-38500000D02*
X26000000Y-53000000D01*
X32009236Y-118450000D02*
X102700000Y-118450000D01*
X38000000Y-91213277D02*
X38000000Y-95500000D01*
X30750000Y-57750000D02*
X33250000Y-60250000D01*
X113000000Y-120500000D02*
X113500000Y-120000000D01*
%TO.N,/COL8*%
X116500000Y-100300000D02*
X116500000Y-112375000D01*
X178500000Y-48000000D02*
X188000000Y-57500000D01*
X198150000Y-99850000D02*
X124250000Y-99850000D01*
X188000000Y-71750000D02*
X192750000Y-76500000D01*
X192750000Y-85750000D02*
X202500000Y-95500000D01*
X123800000Y-100300000D02*
X116500000Y-100300000D01*
X202500000Y-95500000D02*
X198150000Y-99850000D01*
X218750000Y-107500000D02*
X218750000Y-114750000D01*
X124250000Y-99850000D02*
X123800000Y-100300000D01*
X216500000Y-105250000D02*
X218750000Y-107500000D01*
X178500000Y-38500000D02*
X178500000Y-48000000D01*
X192750000Y-76500000D02*
X192750000Y-85750000D01*
X188000000Y-57500000D02*
X188000000Y-71750000D01*
%TO.N,/COL12*%
X289537006Y-85465770D02*
X289537006Y-96712994D01*
X254500000Y-48000000D02*
X264000000Y-57500000D01*
X280750000Y-76500000D02*
X280750000Y-76678764D01*
X125259188Y-112877208D02*
X124136396Y-114000000D01*
X280750000Y-76678764D02*
X289537006Y-85465770D01*
X279708287Y-76500000D02*
X280750000Y-76500000D01*
X125259188Y-101650000D02*
X125259188Y-112877208D01*
X124136396Y-114000000D02*
X119625000Y-114000000D01*
X264000000Y-60791713D02*
X279708287Y-76500000D01*
X289537006Y-96712994D02*
X284600000Y-101650000D01*
X284600000Y-101650000D02*
X125259188Y-101650000D01*
X264000000Y-57500000D02*
X264000000Y-60791713D01*
X254500000Y-38500000D02*
X254500000Y-48000000D01*
%TO.N,/COL4*%
X111750000Y-71750000D02*
X116500000Y-76500000D01*
X102250000Y-38500000D02*
X102250000Y-48000000D01*
X108911396Y-117025000D02*
X112500000Y-117025000D01*
X111750000Y-57500000D02*
X111750000Y-71750000D01*
X126000000Y-95500000D02*
X123000000Y-98500000D01*
X116500000Y-76500000D02*
X116500000Y-86000000D01*
X102450000Y-100936396D02*
X102450000Y-110563604D01*
X123000000Y-98500000D02*
X104886396Y-98500000D01*
X116500000Y-86000000D02*
X126000000Y-95500000D01*
X102250000Y-48000000D02*
X111750000Y-57500000D01*
X102450000Y-110563604D02*
X108911396Y-117025000D01*
X104886396Y-98500000D02*
X102450000Y-100936396D01*
%TO.N,/ROW4*%
X123545584Y-120250000D02*
X118471751Y-120250000D01*
X118500000Y-120221751D02*
X118500000Y-119625000D01*
X208660806Y-123302663D02*
X206203842Y-120845699D01*
X208660806Y-124750000D02*
X208660806Y-123302663D01*
X206203842Y-120845699D02*
X202729168Y-120845699D01*
X202729168Y-120845699D02*
X200200000Y-123374867D01*
X200200000Y-124750000D02*
X128045584Y-124750000D01*
X308600000Y-106175000D02*
X308600000Y-124925000D01*
X200200000Y-123374867D02*
X200200000Y-124750000D01*
X308600000Y-124925000D02*
X208835806Y-124925000D01*
X118471751Y-120250000D02*
X118500000Y-120221751D01*
X208835806Y-124925000D02*
X208660806Y-124750000D01*
X128045584Y-124750000D02*
X123545584Y-120250000D01*
X308325500Y-106175000D02*
X308600000Y-106175000D01*
%TO.N,/COL10*%
X216500000Y-38250000D02*
X216500000Y-48000000D01*
X266250000Y-105275500D02*
X266250000Y-114500000D01*
X124172792Y-101200000D02*
X117500000Y-101200000D01*
X230750000Y-76500000D02*
X230750000Y-86250000D01*
X235250000Y-100750000D02*
X124622792Y-100750000D01*
X240250000Y-95750000D02*
X235250000Y-100750000D01*
X226000000Y-57500000D02*
X226000000Y-71750000D01*
X266250000Y-114500000D02*
X266500000Y-114750000D01*
X117500000Y-101200000D02*
X117500000Y-112375000D01*
X124622792Y-100750000D02*
X124172792Y-101200000D01*
X230750000Y-86250000D02*
X240250000Y-95750000D01*
X226000000Y-71750000D02*
X230750000Y-76500000D01*
X216500000Y-48000000D02*
X226000000Y-57500000D01*
%TO.N,/COL6*%
X149750000Y-71500000D02*
X154750000Y-76500000D01*
X149750000Y-57500000D02*
X149750000Y-71500000D01*
X154750000Y-86000000D02*
X164250000Y-95500000D01*
X115500000Y-99400000D02*
X115500000Y-112375000D01*
X160800000Y-98950000D02*
X123822792Y-98950000D01*
X154750000Y-76500000D02*
X154750000Y-86000000D01*
X164250000Y-95500000D02*
X160800000Y-98950000D01*
X123822792Y-98950000D02*
X123372792Y-99400000D01*
X123372792Y-99400000D02*
X115500000Y-99400000D01*
X140250000Y-48000000D02*
X149750000Y-57500000D01*
X140250000Y-38500000D02*
X140250000Y-48000000D01*
%TO.N,/COL7*%
X124009188Y-99400000D02*
X123559188Y-99850000D01*
X159250000Y-38500000D02*
X159250000Y-47500000D01*
X179350000Y-99400000D02*
X124009188Y-99400000D01*
X173750000Y-76500000D02*
X173750000Y-86000000D01*
X169000000Y-57250000D02*
X169000000Y-71750000D01*
X123559188Y-99850000D02*
X116000000Y-99850000D01*
X183250000Y-95500000D02*
X179350000Y-99400000D01*
X169000000Y-71750000D02*
X173750000Y-76500000D01*
X159250000Y-47500000D02*
X169000000Y-57250000D01*
X116000000Y-99850000D02*
X116000000Y-112375000D01*
X173750000Y-86000000D02*
X183250000Y-95500000D01*
%TO.N,/COL9*%
X197500000Y-38500000D02*
X197500000Y-48000000D01*
X207000000Y-57500000D02*
X207000000Y-71750000D01*
X117000000Y-100750000D02*
X117000000Y-112375000D01*
X124436396Y-100300000D02*
X123986396Y-100750000D01*
X197500000Y-48000000D02*
X207000000Y-57500000D01*
X221000000Y-95500000D02*
X221000000Y-95250000D01*
X221000000Y-95750000D02*
X216450000Y-100300000D01*
X216450000Y-100300000D02*
X124436396Y-100300000D01*
X123986396Y-100750000D02*
X117000000Y-100750000D01*
X211750000Y-86000000D02*
X211750000Y-76500000D01*
X242500000Y-105250000D02*
X242500000Y-114500000D01*
X221000000Y-95250000D02*
X211750000Y-86000000D01*
X242500000Y-114500000D02*
X242750000Y-114750000D01*
X221000000Y-95500000D02*
X221000000Y-95750000D01*
X207000000Y-71750000D02*
X211750000Y-76500000D01*
%TO.N,/COL2*%
X108613604Y-118000000D02*
X106613604Y-116000000D01*
X78500000Y-86000000D02*
X88000000Y-95500000D01*
X101500000Y-116000000D02*
X100500000Y-117000000D01*
X147000000Y-120500000D02*
X144000000Y-123500000D01*
X144000000Y-123500000D02*
X136500000Y-123500000D01*
X106613604Y-116000000D02*
X104500000Y-116000000D01*
X88000000Y-95500000D02*
X76000000Y-107500000D01*
X76275001Y-117525001D02*
X91974999Y-117525001D01*
X63999364Y-47749364D02*
X73750000Y-57500000D01*
X78500000Y-76500000D02*
X78500000Y-86000000D01*
X104000000Y-116000000D02*
X104500000Y-116000000D01*
X91974999Y-117525001D02*
X92000000Y-117500000D01*
X104500000Y-116000000D02*
X101500000Y-116000000D01*
X63999364Y-38493818D02*
X63999364Y-47749364D01*
X112375000Y-118000000D02*
X108613604Y-118000000D01*
X73750000Y-57500000D02*
X73750000Y-71750000D01*
X73750000Y-71750000D02*
X78500000Y-76500000D01*
X100500000Y-117000000D02*
X100500000Y-117500000D01*
X76000000Y-114750000D02*
X76000000Y-117250000D01*
X104000000Y-117500000D02*
X104000000Y-116000000D01*
X92000000Y-117500000D02*
X100500000Y-117500000D01*
X76000000Y-107500000D02*
X76000000Y-114750000D01*
X76000000Y-117250000D02*
X76275001Y-117525001D01*
%TO.N,Net-(R1-Pad1)*%
X109192004Y-113832594D02*
X110359410Y-115000000D01*
X110359410Y-115000000D02*
X112375000Y-115000000D01*
X98500000Y-121150000D02*
X98500000Y-119750000D01*
%TO.N,Net-(R1-Pad2)*%
X23100000Y-28900000D02*
X23050000Y-28950000D01*
X40175002Y-28420000D02*
X40150002Y-28395000D01*
X98500000Y-125500000D02*
X98500000Y-123250000D01*
X40175002Y-28420000D02*
X39195002Y-29400000D01*
X23050000Y-125650000D02*
X98350000Y-125650000D01*
X34577208Y-29400000D02*
X34077208Y-28900000D01*
X40150002Y-28395000D02*
X40150002Y-27520000D01*
X34077208Y-28900000D02*
X23100000Y-28900000D01*
X23050000Y-28950000D02*
X23050000Y-125650000D01*
X41150002Y-28395000D02*
X41125002Y-28420000D01*
X41150002Y-27520000D02*
X41150002Y-28395000D01*
X41125002Y-28420000D02*
X40175002Y-28420000D01*
X98350000Y-125650000D02*
X98500000Y-125500000D01*
X39195002Y-29400000D02*
X34577208Y-29400000D01*
%TO.N,Net-(R2-Pad1)*%
X96000000Y-121150000D02*
X96000000Y-119750000D01*
X111000000Y-114500000D02*
X112375000Y-114500000D01*
X109250000Y-112750000D02*
X111000000Y-114500000D01*
%TO.N,Net-(R2-Pad2)*%
X39381398Y-29850000D02*
X34350000Y-29850000D01*
X41625002Y-26620000D02*
X40675002Y-26620000D01*
X41311398Y-28870000D02*
X40361398Y-28870000D01*
X34350000Y-29850000D02*
X33850000Y-29350000D01*
X41650002Y-28531396D02*
X41311398Y-28870000D01*
X23650000Y-29350000D02*
X23500000Y-29500000D01*
X95800000Y-125200000D02*
X96000000Y-125000000D01*
X41650002Y-27520000D02*
X41650002Y-26645000D01*
X41650002Y-27520000D02*
X41650002Y-28531396D01*
X40675002Y-26620000D02*
X40650002Y-26645000D01*
X41650002Y-26645000D02*
X41625002Y-26620000D01*
X40650002Y-26645000D02*
X40650002Y-27520000D01*
X40361398Y-28870000D02*
X39381398Y-29850000D01*
X33850000Y-29350000D02*
X23650000Y-29350000D01*
X23500000Y-125200000D02*
X95800000Y-125200000D01*
X96000000Y-125000000D02*
X96000000Y-123250000D01*
X23500000Y-29500000D02*
X23500000Y-125200000D01*
%TO.N,Net-(U2-Pad5)*%
X114000000Y-121000000D02*
X114000000Y-119625000D01*
X113524598Y-121475402D02*
X114000000Y-121000000D01*
X113500000Y-121475402D02*
X113524598Y-121475402D01*
%TO.N,Net-(U1-PadA4/B9)*%
X109000000Y-110500000D02*
X110000000Y-110500000D01*
X34813604Y-28950000D02*
X37686396Y-28950000D01*
X120000000Y-108000000D02*
X120000000Y-109000000D01*
X34363604Y-28500000D02*
X34813604Y-28950000D01*
X22600000Y-28536396D02*
X22600000Y-29000000D01*
X113000000Y-110500000D02*
X113500000Y-111000000D01*
X111136396Y-114000000D02*
X112375000Y-114000000D01*
X113500000Y-122500000D02*
X113000000Y-122000000D01*
X22686396Y-28450000D02*
X22600000Y-28536396D01*
X34363604Y-28500000D02*
X34313604Y-28450000D01*
X106000000Y-111500000D02*
X107000000Y-110500000D01*
X37686396Y-28950000D02*
X38500002Y-28136394D01*
X127000000Y-114500000D02*
X123500000Y-118000000D01*
X114500000Y-121500000D02*
X114500000Y-119625000D01*
X38500002Y-28136394D02*
X38500002Y-27520000D01*
X38500002Y-26944951D02*
X38710003Y-26734950D01*
X22600000Y-126100000D02*
X22600000Y-29000000D01*
X43125002Y-27345000D02*
X43300002Y-27520000D01*
X118500000Y-110500000D02*
X118500000Y-112375000D01*
X127000000Y-108500000D02*
X127000000Y-114500000D01*
X38527476Y-25972523D02*
X42972523Y-25972523D01*
X43000000Y-26620000D02*
X43125002Y-26745002D01*
X110000000Y-112863604D02*
X111136396Y-114000000D01*
X23150000Y-28450000D02*
X22686396Y-28450000D01*
X110000000Y-110500000D02*
X113000000Y-110500000D01*
X43000000Y-26000000D02*
X43000000Y-26620000D01*
X110000000Y-110500000D02*
X110000000Y-112863604D01*
X112375000Y-116500000D02*
X109022792Y-116500000D01*
X106000000Y-113477208D02*
X106000000Y-111500000D01*
X38710003Y-26734950D02*
X38710003Y-26155050D01*
X113000000Y-122000000D02*
X103000000Y-122000000D01*
X109022792Y-116500000D02*
X106000000Y-113477208D01*
X42972523Y-25972523D02*
X43000000Y-26000000D01*
X113500000Y-122500000D02*
X114500000Y-121500000D01*
X114500000Y-109500000D02*
X113000000Y-108000000D01*
X103000000Y-122000000D02*
X98900000Y-126100000D01*
X120000000Y-109000000D02*
X118500000Y-110500000D01*
X114500000Y-112375000D02*
X114500000Y-109500000D01*
X34313604Y-28450000D02*
X23500000Y-28450000D01*
X113500000Y-111000000D02*
X113500000Y-112375000D01*
X123500000Y-118000000D02*
X119625000Y-118000000D01*
X38500002Y-27520000D02*
X38500002Y-26944951D01*
X23500000Y-28450000D02*
X23150000Y-28450000D01*
X98900000Y-126100000D02*
X22600000Y-126100000D01*
X43125002Y-26745002D02*
X43125002Y-27345000D01*
X38710003Y-26155050D02*
X38527476Y-25972523D01*
%TD*%
M02*
