%TF.GenerationSoftware,KiCad,Pcbnew,(6.0.8)*%
%TF.CreationDate,2023-01-01T11:03:00+00:00*%
%TF.ProjectId,USBKB,5553424b-422e-46b6-9963-61645f706362,rev?*%
%TF.SameCoordinates,Original*%
%TF.FileFunction,Paste,Bot*%
%TF.FilePolarity,Positive*%
%FSLAX46Y46*%
G04 Gerber Fmt 4.6, Leading zero omitted, Abs format (unit mm)*
G04 Created by KiCad (PCBNEW (6.0.8)) date 2023-01-01 11:03:00*
%MOMM*%
%LPD*%
G01*
G04 APERTURE LIST*
G04 Aperture macros list*
%AMRoundRect*
0 Rectangle with rounded corners*
0 $1 Rounding radius*
0 $2 $3 $4 $5 $6 $7 $8 $9 X,Y pos of 4 corners*
0 Add a 4 corners polygon primitive as box body*
4,1,4,$2,$3,$4,$5,$6,$7,$8,$9,$2,$3,0*
0 Add four circle primitives for the rounded corners*
1,1,$1+$1,$2,$3*
1,1,$1+$1,$4,$5*
1,1,$1+$1,$6,$7*
1,1,$1+$1,$8,$9*
0 Add four rect primitives between the rounded corners*
20,1,$1+$1,$2,$3,$4,$5,0*
20,1,$1+$1,$4,$5,$6,$7,0*
20,1,$1+$1,$6,$7,$8,$9,0*
20,1,$1+$1,$8,$9,$2,$3,0*%
G04 Aperture macros list end*
%ADD10R,0.900000X1.300000*%
%ADD11O,1.150000X0.300000*%
%ADD12O,0.300000X1.150000*%
%ADD13RoundRect,0.200000X2.500000X2.500000X-2.500000X2.500000X-2.500000X-2.500000X2.500000X-2.500000X0*%
%ADD14R,1.400000X1.200000*%
G04 APERTURE END LIST*
D10*
%TO.C,R2*%
X126700000Y-109000000D03*
X128800000Y-109000000D03*
%TD*%
%TO.C,C2*%
X141050000Y-119500000D03*
X138950000Y-119500000D03*
%TD*%
%TO.C,C3*%
X141050000Y-116000000D03*
X138950000Y-116000000D03*
%TD*%
%TO.C,C1*%
X134550000Y-114750000D03*
X132450000Y-114750000D03*
%TD*%
D11*
%TO.C,U3*%
X119125000Y-111000000D03*
X119125000Y-111500000D03*
X119125000Y-112000000D03*
X119125000Y-112500000D03*
X119125000Y-113000000D03*
X119125000Y-113500000D03*
X119125000Y-114000000D03*
X119125000Y-114500000D03*
X119125000Y-115000000D03*
X119125000Y-115500000D03*
X119125000Y-116000000D03*
D12*
X118000000Y-117125000D03*
X117500000Y-117125000D03*
X117000000Y-117125000D03*
X116500000Y-117125000D03*
X116000000Y-117125000D03*
X115500000Y-117125000D03*
X115000000Y-117125000D03*
X114500000Y-117125000D03*
X114000000Y-117125000D03*
X113500000Y-117125000D03*
X113000000Y-117125000D03*
D11*
X111875000Y-116000000D03*
X111875000Y-115500000D03*
X111875000Y-115000000D03*
X111875000Y-114500000D03*
X111875000Y-114000000D03*
X111875000Y-113500000D03*
X111875000Y-113000000D03*
X111875000Y-112500000D03*
X111875000Y-112000000D03*
X111875000Y-111500000D03*
X111875000Y-111000000D03*
D12*
X113000000Y-109875000D03*
X113500000Y-109875000D03*
X114000000Y-109875000D03*
X114500000Y-109875000D03*
X115000000Y-109875000D03*
X115500000Y-109875000D03*
X116000000Y-109875000D03*
X116500000Y-109875000D03*
X117000000Y-109875000D03*
X117500000Y-109875000D03*
X118000000Y-109875000D03*
D13*
X115500000Y-113500000D03*
%TD*%
D10*
%TO.C,R1*%
X126700000Y-111500000D03*
X128800000Y-111500000D03*
%TD*%
D14*
%TO.C,Y1*%
X135600000Y-121350000D03*
X133400000Y-121350000D03*
X133400000Y-119650000D03*
X135600000Y-119650000D03*
%TD*%
M02*
