%TF.GenerationSoftware,KiCad,Pcbnew,(6.0.8)*%
%TF.CreationDate,2023-01-01T11:03:00+00:00*%
%TF.ProjectId,USBKB,5553424b-422e-46b6-9963-61645f706362,rev?*%
%TF.SameCoordinates,Original*%
%TF.FileFunction,Paste,Top*%
%TF.FilePolarity,Positive*%
%FSLAX46Y46*%
G04 Gerber Fmt 4.6, Leading zero omitted, Abs format (unit mm)*
G04 Created by KiCad (PCBNEW (6.0.8)) date 2023-01-01 11:03:00*
%MOMM*%
%LPD*%
G01*
G04 APERTURE LIST*
%ADD10R,2.550000X2.500000*%
%ADD11R,0.600000X1.150000*%
%ADD12R,0.300000X1.150000*%
G04 APERTURE END LIST*
D10*
%TO.C,KSEVEN1*%
X172616180Y-33870000D03*
X159166180Y-36410000D03*
%TD*%
%TO.C,KBSPACE1*%
X296441005Y-33870000D03*
X282991005Y-36410000D03*
%TD*%
%TO.C,KE1*%
X105940003Y-52920000D03*
X92490003Y-55460000D03*
%TD*%
%TO.C,KBSLASH1*%
X301202005Y-52920000D03*
X287752005Y-55460000D03*
%TD*%
%TO.C,KA1*%
X72603005Y-71970000D03*
X59153005Y-74510000D03*
%TD*%
%TO.C,KSPACE1*%
X160709005Y-110070000D03*
X147259005Y-112610000D03*
%TD*%
%TO.C,KC1*%
X120228005Y-91020000D03*
X106778005Y-93560000D03*
%TD*%
%TO.C,KS1*%
X91653005Y-71970000D03*
X78203005Y-74510000D03*
%TD*%
%TO.C,KF1*%
X129753005Y-71970000D03*
X116303005Y-74510000D03*
%TD*%
%TO.C,KY1*%
X163090000Y-52920000D03*
X149640000Y-55460000D03*
%TD*%
%TO.C,KCAPS1*%
X46409005Y-71970000D03*
X32959005Y-74510000D03*
%TD*%
%TO.C,KL1*%
X225003005Y-71970000D03*
X211553005Y-74510000D03*
%TD*%
%TO.C,KB1*%
X158328005Y-91020000D03*
X144878005Y-93560000D03*
%TD*%
%TO.C,KEIGHT1*%
X191666205Y-33870000D03*
X178216205Y-36410000D03*
%TD*%
%TO.C,KRALT1*%
X232146005Y-110070000D03*
X218696005Y-112610000D03*
%TD*%
%TO.C,KU1*%
X182139999Y-52920000D03*
X168689999Y-55460000D03*
%TD*%
D11*
%TO.C,U1*%
X44100002Y-27520000D03*
X43300002Y-27520000D03*
D12*
X42150002Y-27520000D03*
X41150002Y-27520000D03*
X40650002Y-27520000D03*
X39650002Y-27520000D03*
D11*
X37700002Y-27520000D03*
X38500002Y-27520000D03*
D12*
X39150002Y-27520000D03*
X40150002Y-27520000D03*
X41650002Y-27520000D03*
X42650002Y-27520000D03*
%TD*%
D10*
%TO.C,KJ1*%
X186903005Y-71970000D03*
X173453005Y-74510000D03*
%TD*%
%TO.C,KSC1*%
X244053005Y-71970000D03*
X230603005Y-74510000D03*
%TD*%
%TO.C,KRB1*%
X277389994Y-52920000D03*
X263939994Y-55460000D03*
%TD*%
%TO.C,KZERO1*%
X229766255Y-33870000D03*
X216316255Y-36410000D03*
%TD*%
%TO.C,KDASH1*%
X248816280Y-33870000D03*
X235366280Y-36410000D03*
%TD*%
%TO.C,KLALT1*%
X89272505Y-110070000D03*
X75822505Y-112610000D03*
%TD*%
%TO.C,KRCTRL1*%
X279771337Y-110070000D03*
X266321337Y-112610000D03*
%TD*%
%TO.C,KZ1*%
X82128005Y-91020000D03*
X68678005Y-93560000D03*
%TD*%
%TO.C,KW1*%
X86890004Y-52920000D03*
X73440004Y-55460000D03*
%TD*%
%TO.C,KLCTRL1*%
X41647005Y-110070000D03*
X28197005Y-112610000D03*
%TD*%
%TO.C,KLS1*%
X51172005Y-91020000D03*
X37722005Y-93560000D03*
%TD*%
%TO.C,KFIVE1*%
X134516130Y-33870000D03*
X121066130Y-36410000D03*
%TD*%
%TO.C,KRMETA1*%
X255958671Y-110070000D03*
X242508671Y-112610000D03*
%TD*%
%TO.C,KFOUR1*%
X115466105Y-33870000D03*
X102016105Y-36410000D03*
%TD*%
%TO.C,KQ1*%
X67840005Y-52920000D03*
X54390005Y-55460000D03*
%TD*%
%TO.C,KI1*%
X201189998Y-52920000D03*
X187739998Y-55460000D03*
%TD*%
%TO.C,KK1*%
X205953005Y-71970000D03*
X192503005Y-74510000D03*
%TD*%
%TO.C,KLMETA1*%
X65459755Y-110070000D03*
X52009755Y-112610000D03*
%TD*%
%TO.C,KTWO1*%
X77366055Y-33870000D03*
X63916055Y-36410000D03*
%TD*%
%TO.C,KEQUALS1*%
X267866305Y-33870000D03*
X254416305Y-36410000D03*
%TD*%
%TO.C,KONE1*%
X58316030Y-33870000D03*
X44866030Y-36410000D03*
%TD*%
%TO.C,KNINE1*%
X210716230Y-33870000D03*
X197266230Y-36410000D03*
%TD*%
%TO.C,KAP1*%
X263103005Y-71970000D03*
X249653005Y-74510000D03*
%TD*%
%TO.C,KFN1*%
X303584003Y-110070000D03*
X290134003Y-112610000D03*
%TD*%
%TO.C,KH1*%
X167853005Y-71970000D03*
X154403005Y-74510000D03*
%TD*%
%TO.C,KFSLASH1*%
X253578005Y-91020000D03*
X240128005Y-93560000D03*
%TD*%
%TO.C,KRS1*%
X289297005Y-91020000D03*
X275847005Y-93560000D03*
%TD*%
%TO.C,KO1*%
X220239997Y-52920000D03*
X206789997Y-55460000D03*
%TD*%
%TO.C,KESC1*%
X39266005Y-33870000D03*
X25816005Y-36410000D03*
%TD*%
%TO.C,KTAB1*%
X44028005Y-52920000D03*
X30578005Y-55460000D03*
%TD*%
%TO.C,KN1*%
X177378005Y-91020000D03*
X163928005Y-93560000D03*
%TD*%
%TO.C,KCOMMA1*%
X215478005Y-91020000D03*
X202028005Y-93560000D03*
%TD*%
%TO.C,KR1*%
X124990002Y-52920000D03*
X111540002Y-55460000D03*
%TD*%
%TO.C,KPERIOD1*%
X234528005Y-91020000D03*
X221078005Y-93560000D03*
%TD*%
%TO.C,KG1*%
X148803005Y-71970000D03*
X135353005Y-74510000D03*
%TD*%
%TO.C,KP1*%
X239289996Y-52920000D03*
X225839996Y-55460000D03*
%TD*%
%TO.C,KM1*%
X196428005Y-91020000D03*
X182978005Y-93560000D03*
%TD*%
%TO.C,KSIX1*%
X153566155Y-33870000D03*
X140116155Y-36410000D03*
%TD*%
%TO.C,KRETURN1*%
X294059005Y-71970000D03*
X280609005Y-74510000D03*
%TD*%
%TO.C,KTHREE1*%
X96416080Y-33870000D03*
X82966080Y-36410000D03*
%TD*%
%TO.C,KX1*%
X101178005Y-91020000D03*
X87728005Y-93560000D03*
%TD*%
%TO.C,KT1*%
X144040001Y-52920000D03*
X130590001Y-55460000D03*
%TD*%
%TO.C,KLB1*%
X258339995Y-52920000D03*
X244889995Y-55460000D03*
%TD*%
%TO.C,KV1*%
X139278005Y-91020000D03*
X125828005Y-93560000D03*
%TD*%
%TO.C,KD1*%
X110703005Y-71970000D03*
X97253005Y-74510000D03*
%TD*%
M02*
