%TF.GenerationSoftware,KiCad,Pcbnew,(6.0.8)*%
%TF.CreationDate,2023-01-01T11:03:00+00:00*%
%TF.ProjectId,USBKB,5553424b-422e-46b6-9963-61645f706362,rev?*%
%TF.SameCoordinates,Original*%
%TF.FileFunction,Soldermask,Bot*%
%TF.FilePolarity,Negative*%
%FSLAX46Y46*%
G04 Gerber Fmt 4.6, Leading zero omitted, Abs format (unit mm)*
G04 Created by KiCad (PCBNEW (6.0.8)) date 2023-01-01 11:03:00*
%MOMM*%
%LPD*%
G01*
G04 APERTURE LIST*
G04 Aperture macros list*
%AMRoundRect*
0 Rectangle with rounded corners*
0 $1 Rounding radius*
0 $2 $3 $4 $5 $6 $7 $8 $9 X,Y pos of 4 corners*
0 Add a 4 corners polygon primitive as box body*
4,1,4,$2,$3,$4,$5,$6,$7,$8,$9,$2,$3,0*
0 Add four circle primitives for the rounded corners*
1,1,$1+$1,$2,$3*
1,1,$1+$1,$4,$5*
1,1,$1+$1,$6,$7*
1,1,$1+$1,$8,$9*
0 Add four rect primitives between the rounded corners*
20,1,$1+$1,$2,$3,$4,$5,0*
20,1,$1+$1,$4,$5,$6,$7,0*
20,1,$1+$1,$6,$7,$8,$9,0*
20,1,$1+$1,$8,$9,$2,$3,0*%
G04 Aperture macros list end*
%ADD10C,3.050000*%
%ADD11C,4.000000*%
%ADD12C,1.750000*%
%ADD13C,3.150000*%
%ADD14C,4.038600*%
%ADD15O,1.000000X2.100000*%
%ADD16C,0.650000*%
%ADD17R,2.000000X2.000000*%
%ADD18C,2.000000*%
%ADD19R,0.900000X1.300000*%
%ADD20O,1.150000X0.300000*%
%ADD21O,0.300000X1.150000*%
%ADD22RoundRect,0.200000X2.500000X2.500000X-2.500000X2.500000X-2.500000X-2.500000X2.500000X-2.500000X0*%
%ADD23R,1.400000X1.200000*%
G04 APERTURE END LIST*
D10*
%TO.C,KSEVEN1*%
X169066180Y-33870000D03*
D11*
X166526180Y-38950000D03*
D10*
X162716180Y-36410000D03*
D12*
X161446180Y-38950000D03*
X171606180Y-38950000D03*
%TD*%
D10*
%TO.C,KBSPACE1*%
X286541005Y-36410000D03*
D13*
X302289005Y-31965000D03*
D12*
X285271005Y-38950000D03*
D11*
X290351005Y-38950000D03*
D14*
X278413005Y-47205000D03*
D12*
X295431005Y-38950000D03*
D10*
X292891005Y-33870000D03*
D14*
X302289005Y-47205000D03*
D13*
X278413005Y-31965000D03*
%TD*%
D12*
%TO.C,KE1*%
X104930003Y-58000000D03*
D10*
X96040003Y-55460000D03*
D12*
X94770003Y-58000000D03*
D10*
X102390003Y-52920000D03*
D11*
X99850003Y-58000000D03*
%TD*%
D12*
%TO.C,KBSLASH1*%
X290032005Y-58000000D03*
D10*
X291302005Y-55460000D03*
X297652005Y-52920000D03*
D12*
X300192005Y-58000000D03*
D11*
X295112005Y-58000000D03*
%TD*%
D10*
%TO.C,KA1*%
X69053005Y-71970000D03*
X62703005Y-74510000D03*
D12*
X61433005Y-77050000D03*
D11*
X66513005Y-77050000D03*
D12*
X71593005Y-77050000D03*
%TD*%
%TO.C,KSPACE1*%
X149539005Y-115150000D03*
D10*
X150809005Y-112610000D03*
D12*
X159699005Y-115150000D03*
D14*
X204466505Y-123405000D03*
D11*
X154619005Y-115150000D03*
D13*
X204466505Y-108165000D03*
D14*
X104771505Y-123405000D03*
D10*
X157159005Y-110070000D03*
D13*
X104771505Y-108165000D03*
%TD*%
D10*
%TO.C,KC1*%
X110328005Y-93560000D03*
D11*
X114138005Y-96100000D03*
D12*
X119218005Y-96100000D03*
X109058005Y-96100000D03*
D10*
X116678005Y-91020000D03*
%TD*%
D12*
%TO.C,KS1*%
X80483005Y-77050000D03*
D11*
X85563005Y-77050000D03*
D10*
X88103005Y-71970000D03*
X81753005Y-74510000D03*
D12*
X90643005Y-77050000D03*
%TD*%
D11*
%TO.C,KF1*%
X123663005Y-77050000D03*
D12*
X118583005Y-77050000D03*
X128743005Y-77050000D03*
D10*
X119853005Y-74510000D03*
X126203005Y-71970000D03*
%TD*%
D12*
%TO.C,KY1*%
X151920000Y-58000000D03*
D11*
X157000000Y-58000000D03*
D10*
X153190000Y-55460000D03*
D12*
X162080000Y-58000000D03*
D10*
X159540000Y-52920000D03*
%TD*%
D11*
%TO.C,KCAPS1*%
X40319005Y-77050000D03*
D10*
X36509005Y-74510000D03*
X42859005Y-71970000D03*
D12*
X45399005Y-77050000D03*
X35239005Y-77050000D03*
%TD*%
D11*
%TO.C,KL1*%
X218913005Y-77050000D03*
D10*
X221453005Y-71970000D03*
X215103005Y-74510000D03*
D12*
X213833005Y-77050000D03*
X223993005Y-77050000D03*
%TD*%
D10*
%TO.C,KB1*%
X154778005Y-91020000D03*
D11*
X152238005Y-96100000D03*
D12*
X157318005Y-96100000D03*
D10*
X148428005Y-93560000D03*
D12*
X147158005Y-96100000D03*
%TD*%
D10*
%TO.C,KEIGHT1*%
X181766205Y-36410000D03*
D12*
X180496205Y-38950000D03*
D11*
X185576205Y-38950000D03*
D10*
X188116205Y-33870000D03*
D12*
X190656205Y-38950000D03*
%TD*%
D10*
%TO.C,KRALT1*%
X222246005Y-112610000D03*
D12*
X220976005Y-115150000D03*
D10*
X228596005Y-110070000D03*
D12*
X231136005Y-115150000D03*
D11*
X226056005Y-115150000D03*
%TD*%
%TO.C,KU1*%
X176049999Y-58000000D03*
D12*
X181129999Y-58000000D03*
D10*
X178589999Y-52920000D03*
D12*
X170969999Y-58000000D03*
D10*
X172239999Y-55460000D03*
%TD*%
D15*
%TO.C,U1*%
X45220002Y-26945000D03*
X36580002Y-26945000D03*
X36580002Y-22765000D03*
X45220002Y-22765000D03*
D16*
X43790002Y-26445000D03*
X38010002Y-26445000D03*
%TD*%
D12*
%TO.C,KJ1*%
X175733005Y-77050000D03*
D10*
X177003005Y-74510000D03*
X183353005Y-71970000D03*
D12*
X185893005Y-77050000D03*
D11*
X180813005Y-77050000D03*
%TD*%
D12*
%TO.C,KSC1*%
X243043005Y-77050000D03*
D11*
X237963005Y-77050000D03*
D10*
X240503005Y-71970000D03*
X234153005Y-74510000D03*
D12*
X232883005Y-77050000D03*
%TD*%
D11*
%TO.C,KRB1*%
X271299994Y-58000000D03*
D12*
X276379994Y-58000000D03*
X266219994Y-58000000D03*
D10*
X267489994Y-55460000D03*
X273839994Y-52920000D03*
%TD*%
%TO.C,KZERO1*%
X226216255Y-33870000D03*
X219866255Y-36410000D03*
D12*
X218596255Y-38950000D03*
D11*
X223676255Y-38950000D03*
D12*
X228756255Y-38950000D03*
%TD*%
D11*
%TO.C,KDASH1*%
X242726280Y-38950000D03*
D10*
X245266280Y-33870000D03*
D12*
X247806280Y-38950000D03*
X237646280Y-38950000D03*
D10*
X238916280Y-36410000D03*
%TD*%
D12*
%TO.C,KLALT1*%
X88262505Y-115150000D03*
D11*
X83182505Y-115150000D03*
D12*
X78102505Y-115150000D03*
D10*
X85722505Y-110070000D03*
X79372505Y-112610000D03*
%TD*%
D12*
%TO.C,KRCTRL1*%
X268601337Y-115150000D03*
D11*
X273681337Y-115150000D03*
D10*
X276221337Y-110070000D03*
D12*
X278761337Y-115150000D03*
D10*
X269871337Y-112610000D03*
%TD*%
%TO.C,KZ1*%
X72228005Y-93560000D03*
D11*
X76038005Y-96100000D03*
D10*
X78578005Y-91020000D03*
D12*
X70958005Y-96100000D03*
X81118005Y-96100000D03*
%TD*%
D10*
%TO.C,KW1*%
X83340004Y-52920000D03*
D12*
X85880004Y-58000000D03*
D11*
X80800004Y-58000000D03*
D12*
X75720004Y-58000000D03*
D10*
X76990004Y-55460000D03*
%TD*%
%TO.C,KLCTRL1*%
X38097005Y-110070000D03*
D12*
X30477005Y-115150000D03*
D10*
X31747005Y-112610000D03*
D12*
X40637005Y-115150000D03*
D11*
X35557005Y-115150000D03*
%TD*%
D13*
%TO.C,KLS1*%
X33144005Y-89115000D03*
D11*
X45082005Y-96100000D03*
D12*
X40002005Y-96100000D03*
D10*
X41272005Y-93560000D03*
D14*
X33144005Y-104355000D03*
X57020005Y-104355000D03*
D12*
X50162005Y-96100000D03*
D10*
X47622005Y-91020000D03*
D13*
X57020005Y-89115000D03*
%TD*%
D12*
%TO.C,KFIVE1*%
X123346130Y-38950000D03*
D10*
X130966130Y-33870000D03*
D11*
X128426130Y-38950000D03*
D10*
X124616130Y-36410000D03*
D12*
X133506130Y-38950000D03*
%TD*%
D10*
%TO.C,KRMETA1*%
X246058671Y-112610000D03*
D12*
X254948671Y-115150000D03*
D10*
X252408671Y-110070000D03*
D11*
X249868671Y-115150000D03*
D12*
X244788671Y-115150000D03*
%TD*%
D10*
%TO.C,KFOUR1*%
X105566105Y-36410000D03*
D12*
X104296105Y-38950000D03*
D11*
X109376105Y-38950000D03*
D12*
X114456105Y-38950000D03*
D10*
X111916105Y-33870000D03*
%TD*%
D12*
%TO.C,KQ1*%
X66830005Y-58000000D03*
D10*
X64290005Y-52920000D03*
D11*
X61750005Y-58000000D03*
D12*
X56670005Y-58000000D03*
D10*
X57940005Y-55460000D03*
%TD*%
D12*
%TO.C,KI1*%
X200179998Y-58000000D03*
D11*
X195099998Y-58000000D03*
D12*
X190019998Y-58000000D03*
D10*
X191289998Y-55460000D03*
X197639998Y-52920000D03*
%TD*%
D11*
%TO.C,KK1*%
X199863005Y-77050000D03*
D10*
X202403005Y-71970000D03*
D12*
X194783005Y-77050000D03*
X204943005Y-77050000D03*
D10*
X196053005Y-74510000D03*
%TD*%
D12*
%TO.C,KLMETA1*%
X64449755Y-115150000D03*
D10*
X61909755Y-110070000D03*
D11*
X59369755Y-115150000D03*
D12*
X54289755Y-115150000D03*
D10*
X55559755Y-112610000D03*
%TD*%
%TO.C,KTWO1*%
X67466055Y-36410000D03*
D12*
X66196055Y-38950000D03*
X76356055Y-38950000D03*
D10*
X73816055Y-33870000D03*
D11*
X71276055Y-38950000D03*
%TD*%
D10*
%TO.C,KEQUALS1*%
X257966305Y-36410000D03*
D11*
X261776305Y-38950000D03*
D10*
X264316305Y-33870000D03*
D12*
X266856305Y-38950000D03*
X256696305Y-38950000D03*
%TD*%
%TO.C,KONE1*%
X47146030Y-38950000D03*
X57306030Y-38950000D03*
D10*
X54766030Y-33870000D03*
X48416030Y-36410000D03*
D11*
X52226030Y-38950000D03*
%TD*%
%TO.C,KNINE1*%
X204626230Y-38950000D03*
D12*
X209706230Y-38950000D03*
D10*
X200816230Y-36410000D03*
X207166230Y-33870000D03*
D12*
X199546230Y-38950000D03*
%TD*%
D10*
%TO.C,KAP1*%
X253203005Y-74510000D03*
X259553005Y-71970000D03*
D12*
X251933005Y-77050000D03*
D11*
X257013005Y-77050000D03*
D12*
X262093005Y-77050000D03*
%TD*%
D10*
%TO.C,KFN1*%
X300034003Y-110070000D03*
D12*
X292414003Y-115150000D03*
D11*
X297494003Y-115150000D03*
D10*
X293684003Y-112610000D03*
D12*
X302574003Y-115150000D03*
%TD*%
%TO.C,KH1*%
X166843005Y-77050000D03*
D10*
X157953005Y-74510000D03*
D11*
X161763005Y-77050000D03*
D10*
X164303005Y-71970000D03*
D12*
X156683005Y-77050000D03*
%TD*%
%TO.C,KFSLASH1*%
X242408005Y-96100000D03*
D10*
X250028005Y-91020000D03*
D12*
X252568005Y-96100000D03*
D10*
X243678005Y-93560000D03*
D11*
X247488005Y-96100000D03*
%TD*%
%TO.C,KRS1*%
X283207005Y-96100000D03*
D13*
X271269005Y-89115000D03*
D14*
X295145005Y-104355000D03*
D12*
X278127005Y-96100000D03*
X288287005Y-96100000D03*
D13*
X295145005Y-89115000D03*
D10*
X279397005Y-93560000D03*
X285747005Y-91020000D03*
D14*
X271269005Y-104355000D03*
%TD*%
D12*
%TO.C,KO1*%
X209069997Y-58000000D03*
D11*
X214149997Y-58000000D03*
D10*
X216689997Y-52920000D03*
D12*
X219229997Y-58000000D03*
D10*
X210339997Y-55460000D03*
%TD*%
D12*
%TO.C,KESC1*%
X28096005Y-38950000D03*
X38256005Y-38950000D03*
D11*
X33176005Y-38950000D03*
D10*
X35716005Y-33870000D03*
X29366005Y-36410000D03*
%TD*%
D17*
%TO.C,U2*%
X175730000Y-111960000D03*
D18*
X178270000Y-111960000D03*
X175730000Y-114500000D03*
X178270000Y-114500000D03*
X175730000Y-117040000D03*
X178270000Y-117040000D03*
%TD*%
D11*
%TO.C,KTAB1*%
X37938005Y-58000000D03*
D12*
X32858005Y-58000000D03*
X43018005Y-58000000D03*
D10*
X34128005Y-55460000D03*
X40478005Y-52920000D03*
%TD*%
D12*
%TO.C,KN1*%
X166208005Y-96100000D03*
D10*
X167478005Y-93560000D03*
D11*
X171288005Y-96100000D03*
D12*
X176368005Y-96100000D03*
D10*
X173828005Y-91020000D03*
%TD*%
%TO.C,KCOMMA1*%
X211928005Y-91020000D03*
D12*
X204308005Y-96100000D03*
D11*
X209388005Y-96100000D03*
D10*
X205578005Y-93560000D03*
D12*
X214468005Y-96100000D03*
%TD*%
%TO.C,KR1*%
X113820002Y-58000000D03*
X123980002Y-58000000D03*
D10*
X115090002Y-55460000D03*
D11*
X118900002Y-58000000D03*
D10*
X121440002Y-52920000D03*
%TD*%
%TO.C,KPERIOD1*%
X224628005Y-93560000D03*
D11*
X228438005Y-96100000D03*
D12*
X223358005Y-96100000D03*
X233518005Y-96100000D03*
D10*
X230978005Y-91020000D03*
%TD*%
D12*
%TO.C,KG1*%
X137633005Y-77050000D03*
D11*
X142713005Y-77050000D03*
D10*
X138903005Y-74510000D03*
D12*
X147793005Y-77050000D03*
D10*
X145253005Y-71970000D03*
%TD*%
D12*
%TO.C,KP1*%
X238279996Y-58000000D03*
D10*
X229389996Y-55460000D03*
X235739996Y-52920000D03*
D11*
X233199996Y-58000000D03*
D12*
X228119996Y-58000000D03*
%TD*%
D10*
%TO.C,KM1*%
X186528005Y-93560000D03*
D11*
X190338005Y-96100000D03*
D12*
X185258005Y-96100000D03*
D10*
X192878005Y-91020000D03*
D12*
X195418005Y-96100000D03*
%TD*%
D11*
%TO.C,KSIX1*%
X147476155Y-38950000D03*
D10*
X150016155Y-33870000D03*
X143666155Y-36410000D03*
D12*
X142396155Y-38950000D03*
X152556155Y-38950000D03*
%TD*%
D10*
%TO.C,KRETURN1*%
X290509005Y-71970000D03*
D14*
X299907005Y-85305000D03*
D12*
X282889005Y-77050000D03*
D11*
X287969005Y-77050000D03*
D13*
X299907005Y-70065000D03*
D12*
X293049005Y-77050000D03*
D14*
X276031005Y-85305000D03*
D13*
X276031005Y-70065000D03*
D10*
X284159005Y-74510000D03*
%TD*%
D12*
%TO.C,KTHREE1*%
X85246080Y-38950000D03*
D11*
X90326080Y-38950000D03*
D12*
X95406080Y-38950000D03*
D10*
X86516080Y-36410000D03*
X92866080Y-33870000D03*
%TD*%
D11*
%TO.C,KX1*%
X95088005Y-96100000D03*
D10*
X91278005Y-93560000D03*
D12*
X100168005Y-96100000D03*
X90008005Y-96100000D03*
D10*
X97628005Y-91020000D03*
%TD*%
D11*
%TO.C,KT1*%
X137950001Y-58000000D03*
D10*
X140490001Y-52920000D03*
D12*
X143030001Y-58000000D03*
D10*
X134140001Y-55460000D03*
D12*
X132870001Y-58000000D03*
%TD*%
%TO.C,KLB1*%
X257329995Y-58000000D03*
D10*
X248439995Y-55460000D03*
D11*
X252249995Y-58000000D03*
D12*
X247169995Y-58000000D03*
D10*
X254789995Y-52920000D03*
%TD*%
D11*
%TO.C,KV1*%
X133188005Y-96100000D03*
D12*
X138268005Y-96100000D03*
D10*
X129378005Y-93560000D03*
D12*
X128108005Y-96100000D03*
D10*
X135728005Y-91020000D03*
%TD*%
%TO.C,KD1*%
X107153005Y-71970000D03*
D11*
X104613005Y-77050000D03*
D10*
X100803005Y-74510000D03*
D12*
X109693005Y-77050000D03*
X99533005Y-77050000D03*
%TD*%
D19*
%TO.C,R2*%
X126700000Y-109000000D03*
X128800000Y-109000000D03*
%TD*%
%TO.C,C2*%
X141050000Y-119500000D03*
X138950000Y-119500000D03*
%TD*%
%TO.C,C3*%
X141050000Y-116000000D03*
X138950000Y-116000000D03*
%TD*%
%TO.C,C1*%
X134550000Y-114750000D03*
X132450000Y-114750000D03*
%TD*%
D20*
%TO.C,U3*%
X119125000Y-111000000D03*
X119125000Y-111500000D03*
X119125000Y-112000000D03*
X119125000Y-112500000D03*
X119125000Y-113000000D03*
X119125000Y-113500000D03*
X119125000Y-114000000D03*
X119125000Y-114500000D03*
X119125000Y-115000000D03*
X119125000Y-115500000D03*
X119125000Y-116000000D03*
D21*
X118000000Y-117125000D03*
X117500000Y-117125000D03*
X117000000Y-117125000D03*
X116500000Y-117125000D03*
X116000000Y-117125000D03*
X115500000Y-117125000D03*
X115000000Y-117125000D03*
X114500000Y-117125000D03*
X114000000Y-117125000D03*
X113500000Y-117125000D03*
X113000000Y-117125000D03*
D20*
X111875000Y-116000000D03*
X111875000Y-115500000D03*
X111875000Y-115000000D03*
X111875000Y-114500000D03*
X111875000Y-114000000D03*
X111875000Y-113500000D03*
X111875000Y-113000000D03*
X111875000Y-112500000D03*
X111875000Y-112000000D03*
X111875000Y-111500000D03*
X111875000Y-111000000D03*
D21*
X113000000Y-109875000D03*
X113500000Y-109875000D03*
X114000000Y-109875000D03*
X114500000Y-109875000D03*
X115000000Y-109875000D03*
X115500000Y-109875000D03*
X116000000Y-109875000D03*
X116500000Y-109875000D03*
X117000000Y-109875000D03*
X117500000Y-109875000D03*
X118000000Y-109875000D03*
D22*
X115500000Y-113500000D03*
%TD*%
D19*
%TO.C,R1*%
X126700000Y-111500000D03*
X128800000Y-111500000D03*
%TD*%
D23*
%TO.C,Y1*%
X135600000Y-121350000D03*
X133400000Y-121350000D03*
X133400000Y-119650000D03*
X135600000Y-119650000D03*
%TD*%
M02*
